<?xml version="1.0" encoding="UTF-8"?>
<svg xmlns="http://www.w3.org/2000/svg" xmlns:xlink="http://www.w3.org/1999/xlink" width="50px" height="50px" viewBox="0 0 50 50" version="1.1">
<g id="surface1">
<path style=" stroke:none;fill-rule:nonzero;fill:rgb(0%,0%,0%);fill-opacity:1;" d="M 44.097656 18.6875 L 47.5 22.089844 C 47.917969 22.507812 48.546875 22.632812 49.09375 22.40625 C 49.644531 22.179688 50 21.648438 50 21.054688 L 50 7.742188 C 50 6.929688 49.34375 6.277344 48.535156 6.277344 L 35.222656 6.277344 C 34.628906 6.277344 34.09375 6.632812 33.867188 7.179688 C 33.640625 7.726562 33.765625 8.359375 34.1875 8.777344 L 37.585938 12.179688 L 26.570312 23.195312 L 15.054688 11.679688 C 14.480469 11.109375 13.554688 11.109375 12.980469 11.679688 L 2.929688 21.734375 L 2.929688 1.464844 C 2.929688 0.65625 2.273438 0 1.464844 0 C 0.65625 0 0 0.65625 0 1.464844 L 0 48.535156 C 0 49.34375 0.65625 50 1.464844 50 L 48.535156 50 C 49.34375 50 50 49.34375 50 48.535156 C 50 47.726562 49.34375 47.070312 48.535156 47.070312 L 40.585938 47.070312 L 40.585938 22.199219 Z M 14.015625 14.789062 L 25.53125 26.304688 C 26.105469 26.875 27.03125 26.875 27.605469 26.304688 L 40.695312 13.214844 C 41.265625 12.640625 41.265625 11.714844 40.695312 11.144531 L 38.757812 9.207031 L 47.070312 9.207031 L 47.070312 17.519531 L 45.132812 15.582031 C 44.5625 15.007812 43.632812 15.007812 43.0625 15.582031 L 26.570312 32.074219 L 15.054688 20.558594 C 14.480469 19.984375 13.554688 19.984375 12.980469 20.558594 L 2.929688 30.609375 L 2.929688 25.875 Z M 15.480469 25.128906 L 25.105469 34.75 L 25.105469 47.070312 L 15.480469 47.070312 Z M 2.929688 34.75 L 12.550781 25.128906 L 12.550781 47.070312 L 2.929688 47.070312 Z M 37.65625 47.070312 L 28.035156 47.070312 L 28.035156 34.75 L 37.65625 25.128906 Z M 37.65625 47.070312 "/>
</g>
</svg>
