<?xml version="1.0" encoding="iso-8859-1"?>
<!-- Generator: Adobe Illustrator 16.0.0, SVG Export Plug-In . SVG Version: 6.00 Build 0)  -->
<!DOCTYPE svg PUBLIC "-//W3C//DTD SVG 1.1//EN" "http://www.w3.org/Graphics/SVG/1.1/DTD/svg11.dtd">
<svg version="1.1" id="Capa_1" xmlns="http://www.w3.org/2000/svg" xmlns:xlink="http://www.w3.org/1999/xlink" x="0px" y="0px"
	 width="62.995px" height="62.995px" viewBox="0 0 62.995 62.995" style="enable-background:new 0 0 62.995 62.995;"
	 xml:space="preserve">
<g>
	<g>
		<path d="M54.411,24.535c-1.065-1.239-2.934-0.96-4.038,0c-2.959,2.571-5.746,5.317-8.554,8.046
			c-2.872-2.587-5.566-5.357-8.352-8.046c-0.556-0.536-1.171-0.77-1.775-0.8c-0.064-0.006-0.129-0.003-0.195-0.004
			c-0.064,0.002-0.13-0.002-0.195,0.004c-0.603,0.031-1.22,0.265-1.775,0.8c-2.786,2.688-5.479,5.458-8.353,8.046
			c-2.808-2.729-5.596-5.475-8.553-8.046c-1.104-0.96-2.973-1.239-4.039,0c-2.583,3.002-5.134,6.027-7.807,8.949
			c-2.48,2.712,1.548,6.763,4.04,4.039c2.065-2.257,4.057-4.576,6.046-6.898c2.784,2.562,5.46,5.232,8.194,7.851
			c1.202,1.152,2.822,1.012,4.039,0c2.961-2.457,5.668-5.175,8.402-7.873c2.732,2.698,5.44,5.416,8.402,7.873
			c1.216,1.012,2.836,1.152,4.038,0c2.733-2.618,5.409-5.289,8.194-7.851c1.988,2.322,3.98,4.642,6.045,6.898
			c2.49,2.724,6.52-1.326,4.04-4.039C59.543,30.562,56.994,27.537,54.411,24.535z"/>
	</g>
</g>
<g>
</g>
<g>
</g>
<g>
</g>
<g>
</g>
<g>
</g>
<g>
</g>
<g>
</g>
<g>
</g>
<g>
</g>
<g>
</g>
<g>
</g>
<g>
</g>
<g>
</g>
<g>
</g>
<g>
</g>
</svg>
